# xmcd
#
# Track frame offsets: 
#        150
#        13819
#        27244
#        40845
#        53503
#        67148
#        79096
#        93837
#        107362
#        119739
#        132576
#        144853
#        157843
#        171854
#        184564
#        197265
#        210121
#        225260
#        239293
#        252175
#        266112
#        279281
#        292671
#        303478
#        315394
#
# Disc length: 4346 seconds
#
# Revision: 3
# Processed by: cddbd v1.5.2PL0 Copyright (c) Steve Scherf et al.
# Submitted via: ExactAudioCopy v0.99pb4
#
DISCID=4010f819
DTITLE=Andrews Sisters - Rum and Coca Cola  - 4
DYEAR=1900
DGENRE=Swing
TTITLE0=The Wedding Of Lili Marlene
TTITLE1=One Meat Ball
TTITLE2=In Apple Blossom Time
TTITLE3=How Lucky You Are
TTITLE4=Down In The Valley
TTITLE5=Scrub Me Mama, With A Boogie Beat
TTITLE6=I Wanna Be Loved
TTITLE7=A Penny A Kiss A Penny A Hug
TTITLE8=Don´t Worry ´Bout Strangers
TTITLE9=Underneath The Linden Tree
TTITLE10=Mean To Me
TTITLE11=Jealous
TTITLE12=The Blossom Of The Bough
TTITLE13=Open Door Open Arms
TTITLE14=Her Bathing Suit Never Got Wet
TTITLE15=Avocado
TTITLE16=Red River Valley
TTITLE17=Patience And Fortitude
TTITLE18=The Jumpin´Jive
TTITLE19=Chico´s Love Song
TTITLE20=Rock Rock Rock-A-Bye Baby
TTITLE21=You Don´t Know How Much You Can Suffer
TTITLE22=Sabre Dance
TTITLE23=Heartbreaker
TTITLE24=Charley My Boy
EXTD=
EXTT0=
EXTT1=
EXTT2=
EXTT3=
EXTT4=
EXTT5=
EXTT6=
EXTT7=
EXTT8=
EXTT9=
EXTT10=
EXTT11=
EXTT12=
EXTT13=
EXTT14=
EXTT15=
EXTT16=
EXTT17=
EXTT18=
EXTT19=
EXTT20=
EXTT21=
EXTT22=
EXTT23=
EXTT24=
PLAYORDER=
